<svg width="621" height="172" viewBox="0 0 621 172" fill="none" xmlns="http://www.w3.org/2000/svg">
<path d="M152.365 52.35V162H133.165V52.35H152.365ZM192.271 162H173.971V87.9H190.921L192.421 97.5C194.721 93.8 197.971 90.9 202.171 88.8C206.471 86.7 211.121 85.65 216.121 85.65C225.421 85.65 232.421 88.4 237.121 93.9C241.921 99.4 244.321 106.9 244.321 116.4V162H226.021V120.75C226.021 114.55 224.621 109.95 221.821 106.95C219.021 103.85 215.221 102.3 210.421 102.3C204.721 102.3 200.271 104.1 197.071 107.7C193.871 111.3 192.271 116.1 192.271 122.1V162ZM281.836 162L252.436 87.9H271.936L284.836 121.95C286.436 126.35 287.786 130.4 288.886 134.1C290.086 137.7 290.936 140.5 291.436 142.5C291.936 140.2 292.786 137.25 293.986 133.65C295.286 129.95 296.736 126.05 298.336 121.95L311.836 87.9H330.736L299.836 162H281.836ZM333.391 124.8C333.391 117.1 335.091 110.35 338.491 104.55C341.891 98.65 346.591 94.05 352.591 90.75C358.591 87.45 365.391 85.8 372.991 85.8C380.691 85.8 387.491 87.45 393.391 90.75C399.391 94.05 404.091 98.65 407.491 104.55C410.891 110.35 412.591 117.1 412.591 124.8C412.591 132.5 410.891 139.3 407.491 145.2C404.091 151 399.391 155.55 393.391 158.85C387.491 162.15 380.691 163.8 372.991 163.8C365.391 163.8 358.591 162.15 352.591 158.85C346.591 155.55 341.891 151 338.491 145.2C335.091 139.3 333.391 132.5 333.391 124.8ZM351.691 124.8C351.691 129.3 352.591 133.25 354.391 136.65C356.291 140.05 358.791 142.7 361.891 144.6C365.091 146.5 368.791 147.45 372.991 147.45C377.191 147.45 380.891 146.5 384.091 144.6C387.291 142.7 389.791 140.05 391.591 136.65C393.391 133.25 394.291 129.3 394.291 124.8C394.291 120.2 393.391 116.25 391.591 112.95C389.791 109.55 387.291 106.9 384.091 105C380.891 103.1 377.191 102.15 372.991 102.15C368.791 102.15 365.091 103.1 361.891 105C358.791 106.9 356.291 109.55 354.391 112.95C352.591 116.25 351.691 120.2 351.691 124.8ZM427.096 162V87.9H445.396V162H427.096ZM436.096 73.05C432.996 73.05 430.346 72 428.146 69.9C426.046 67.7 424.996 65.05 424.996 61.95C424.996 58.85 426.046 56.25 428.146 54.15C430.346 52.05 432.996 51 436.096 51C439.196 51 441.796 52.05 443.896 54.15C446.096 56.25 447.196 58.85 447.196 61.95C447.196 65.05 446.096 67.7 443.896 69.9C441.796 72 439.196 73.05 436.096 73.05ZM459.953 124.8C459.953 117.2 461.503 110.45 464.603 104.55C467.803 98.65 472.153 94.05 477.653 90.75C483.253 87.35 489.703 85.65 497.003 85.65C507.103 85.65 515.353 88.3 521.753 93.6C528.253 98.8 532.003 105.85 533.003 114.75H514.703C513.603 110.55 511.553 107.4 508.553 105.3C505.653 103.1 502.003 102 497.603 102C493.803 102 490.403 102.95 487.403 104.85C484.503 106.65 482.253 109.25 480.653 112.65C479.053 116.05 478.253 120.1 478.253 124.8C478.253 129.5 479.003 133.55 480.503 136.95C482.003 140.35 484.153 143 486.953 144.9C489.853 146.7 493.253 147.6 497.153 147.6C501.753 147.6 505.553 146.5 508.553 144.3C511.653 142.1 513.703 138.95 514.703 134.85H533.153C532.353 140.65 530.303 145.75 527.003 150.15C523.803 154.45 519.653 157.85 514.553 160.35C509.453 162.75 503.653 163.95 497.153 163.95C489.653 163.95 483.103 162.35 477.503 159.15C471.903 155.85 467.553 151.3 464.453 145.5C461.453 139.6 459.953 132.7 459.953 124.8ZM568.824 163.95C561.024 163.95 554.824 161.85 550.224 157.65C545.724 153.35 543.474 147.75 543.474 140.85C543.474 134.05 545.824 128.65 550.524 124.65C555.324 120.55 562.124 118.15 570.924 117.45L593.124 115.65V114C593.124 110.6 592.474 107.9 591.174 105.9C589.974 103.8 588.224 102.3 585.924 101.4C583.624 100.4 580.924 99.9 577.824 99.9C572.424 99.9 568.274 101 565.374 103.2C562.474 105.3 561.024 108.3 561.024 112.2H545.424C545.424 106.8 546.774 102.15 549.474 98.25C552.274 94.25 556.174 91.15 561.174 88.95C566.274 86.75 572.124 85.65 578.724 85.65C585.424 85.65 591.174 86.85 595.974 89.25C600.774 91.55 604.474 95.05 607.074 99.75C609.674 104.35 610.974 110.1 610.974 117V162H594.924L593.574 151.05C591.974 154.85 588.874 157.95 584.274 160.35C579.774 162.75 574.624 163.95 568.824 163.95ZM574.674 150.15C580.374 150.15 584.874 148.55 588.174 145.35C591.574 142.15 593.274 137.7 593.274 132V128.1L577.824 129.3C572.124 129.8 568.074 131 565.674 132.9C563.274 134.7 562.074 137.1 562.074 140.1C562.074 143.4 563.174 145.9 565.374 147.6C567.574 149.3 570.674 150.15 574.674 150.15Z" fill="black" style="fill:black;fill-opacity:1;"/>
<path d="M12.4521 61H72.8616C93.0868 61 102.774 89.5637 18.5729 88.2901C6.06529 90.7917 0.742882 122.175 75.6559 111.487C95.4819 113.761 96.5996 134.319 18.5729 137.412C1.40812 135.366 3.67011 175.846 86.3007 156.97" stroke="#AE00FF" style="stroke:#AE00FF;stroke:color(display-p3 0.6833 0.0000 1.0000);stroke-opacity:1;" stroke-width="20"/>
<path d="M48.5153 0.5C57.3977 0.5 64.5153 7.03565 64.5153 15C64.5153 22.9644 57.3977 29.5 48.5153 29.5C39.6328 29.5 32.5153 22.9644 32.5153 15C32.5153 7.03565 39.6328 0.5 48.5153 0.5Z" fill="#AE00FF" stroke="#AE00FF" style="fill:#AE00FF;fill:color(display-p3 0.6833 0.0000 1.0000);fill-opacity:1;stroke:#AE00FF;stroke:color(display-p3 0.6833 0.0000 1.0000);stroke-opacity:1;"/>
</svg>
