<svg width="248" height="280" viewBox="0 0 248 280" fill="none" xmlns="http://www.w3.org/2000/svg">
<rect x="29.9996" width="187.69" height="279.228" rx="20" fill="#6720AF" fill-opacity="0.14" style="fill:#6720AF;fill:color(display-p3 0.4055 0.1257 0.6853);fill-opacity:0.14;"/>
<path d="M216.921 57.0154C193.041 60.1069 148.465 78.6567 157.221 118.46C137.321 83.2945 165.181 33.0566 216.921 57.0154Z" fill="white" style="fill:white;fill-opacity:1;"/>
<path d="M12.3075 98.8449C23.0766 69.3068 56.025 56.025 70.7684 53.4609C53.5378 44.8456 35.5124 51.9224 28.8458 56.9223C10.9999 66.7684 10.2563 89.486 12.3075 98.8449Z" fill="#FFFBFB" style="fill:#FFFBFB;fill:color(display-p3 1.0000 0.9846 0.9846);fill-opacity:1;"/>
<circle cx="194.229" cy="92.6913" r="45.9609" stroke="#6720AF" style="stroke:#6720AF;stroke:color(display-p3 0.4055 0.1257 0.6853);stroke-opacity:1;" stroke-width="15"/>
<circle cx="53.4609" cy="92.6913" r="45.9609" stroke="#6720AF" style="stroke:#6720AF;stroke:color(display-p3 0.4055 0.1257 0.6853);stroke-opacity:1;" stroke-width="15"/>
<line x1="95.3835" y1="90.9604" x2="152.306" y2="90.9604" stroke="#6720AF" style="stroke:#6720AF;stroke:color(display-p3 0.4055 0.1257 0.6853);stroke-opacity:1;" stroke-width="15"/>
<path d="M88.4606 173.459C95.2554 180.895 115.922 191.305 144.229 173.459" stroke="#6720AF" style="stroke:#6720AF;stroke:color(display-p3 0.4055 0.1257 0.6853);stroke-opacity:1;" stroke-width="10" stroke-linecap="round"/>
<circle cx="58.8454" cy="104.999" r="11.9229" fill="#6720AF" style="fill:#6720AF;fill:color(display-p3 0.4055 0.1257 0.6853);fill-opacity:1;"/>
<circle cx="182.69" cy="104.999" r="11.9229" fill="#6720AF" style="fill:#6720AF;fill:color(display-p3 0.4055 0.1257 0.6853);fill-opacity:1;"/>
</svg>
