<svg width="512" height="512" viewBox="0 0 512 512" fill="none" xmlns="http://www.w3.org/2000/svg">
  <rect width="512" height="512" rx="108" fill="#9747E6"/>
  <g transform="translate(150, 86) scale(0.7)">
    <path d="M34.1359 160H222.425C285.465 160 315.657 249.085 53.2138 245.113C14.2289 252.915 -2.36039 350.795 231.135 317.459C292.93 324.551 296.414 388.67 53.2138 398.316C-0.286908 391.932 6.76345 518.183 264.313 459.313" stroke="white" stroke-width="53" stroke-linecap="round"/>
    <path d="M146.541 0.5C169.509 0.5 188.041 17.3352 188.041 38C188.041 58.6648 169.509 75.5 146.541 75.5C123.572 75.5 105.041 58.6648 105.041 38C105.041 17.3352 123.572 0.5 146.541 0.5Z" fill="white"/>
  </g>
</svg>
